<?xml version="1.0" standalone="no"?>
<!DOCTYPE svg PUBLIC "-//W3C//DTD SVG 20010904//EN"
 "http://www.w3.org/TR/2001/REC-SVG-20010904/DTD/svg10.dtd">
<svg version="1.0" xmlns="http://www.w3.org/2000/svg"
 width="64.000000pt" height="64.000000pt" viewBox="0 0 64.000000 64.000000"
 preserveAspectRatio="xMidYMid meet">

<g transform="translate(0.000000,64.000000) scale(0.100000,-0.100000)"
fill="#000000" stroke="none">
<path d="M542 593 c-6 -2 -9 -10 -5 -16 4 -7 0 -6 -10 1 -19 16 -36 8 -38 -16
-1 -9 -32 -46 -70 -81 -54 -50 -72 -62 -81 -53 -19 19 -33 14 -93 -34 -54 -44
-57 -49 -51 -83 8 -52 -2 -78 -37 -95 -18 -8 -50 -33 -72 -55 l-39 -41 39 -40
c21 -22 43 -40 47 -40 10 0 78 137 78 156 0 6 12 12 26 12 21 0 29 -9 45 -44
20 -48 26 -51 53 -31 17 12 17 17 5 50 -12 34 -11 38 11 62 l23 25 55 -32 55
-31 19 22 c24 31 23 34 -14 55 -39 23 -88 66 -88 79 0 5 28 38 63 74 34 35 61
68 60 71 -3 11 29 42 42 42 15 0 28 28 19 41 -6 10 -21 11 -42 2z m-232 -196
c0 -2 -17 -19 -37 -38 l-38 -34 34 38 c33 34 41 42 41 34z m39 -133 c-12 -13
-27 -20 -32 -17 -8 5 -7 8 1 11 7 2 9 8 6 13 -3 6 0 16 6 25 10 11 16 12 27 3
11 -10 10 -16 -8 -35z"/>
</g>
</svg>
